<?xml version="1.0" encoding="utf-8"?>
<!-- Generator: Adobe Illustrator 24.3.0, SVG Export Plug-In . SVG Version: 6.00 Build 0)  -->
<svg version="1.1" id="Layer_1" xmlns="http://www.w3.org/2000/svg" xmlns:xlink="http://www.w3.org/1999/xlink" x="0px" y="0px"
	 viewBox="0 0 292 69.8" style="enable-background:new 0 0 292 69.8;" xml:space="preserve">
<style type="text/css">
	.st0{fill:#232B58;}
	.st1{fill:#FFFFFF;}
	.st2{fill:#00205C;}
</style>
<g>
	<path class="st1" d="M35.5,45.9H21.9l0,3.6c0,0,6.9,0.4,14.1,0.4c6.5,0,8.6-2,8.6-7.2v-3.9c0-3.5-1.3-4.9-5-5.6
		c-2.4-0.5-11-2.1-11-2.1c-1.9-0.4-2.3-0.7-2.3-2.2v-1c0-2.9,0.7-3.4,4.2-3.4h12.3l0-3.6c0,0-5-0.4-12.2-0.4c-6.4,0-8.7,1.7-8.7,6.9
		v2.5c0,4.1,2,4.5,6,5.2c1.7,0.3,7.9,1.4,10.4,1.9c1.7,0.3,2.1,1.2,2.1,2.5V42C40.4,45.1,39.3,45.9,35.5,45.9z"/>
	<path class="st1" d="M67.1,41.3l2.7,8.3h4.8c0,0-9.2-27.4-9.4-28.3c-0.2-0.5-0.3-0.7-1.2-0.7h-6.4c-0.9,0-1,0.2-1.1,0.7
		C56.1,22.2,47,49.7,47,49.7h4.8l2.7-8.3H67.1z M59.9,24.2h1.7L66,37.3H55.5L59.9,24.2z"/>
	<path class="st1" d="M82.9,28.2c0.3,0.5,14.4,20.1,14.8,20.7c0.3,0.5,0.7,0.7,1.4,0.7h3.7v-29h-4.2v22h-0.2
		c-0.7-1-15.3-21.3-15.4-21.5c-0.2-0.3-0.3-0.5-1.2-0.5h-3.4v29h4.2V28.2H82.9z"/>
	<path class="st1" d="M167.7,49.7c5.4,0,8.2-3.3,8.2-7.7V28.3c0-4.5-2.9-7.7-8.2-7.7h-9.1c-5.4,0-8.2,3.3-8.2,7.7v13.7
		c0,4.4,2.8,7.7,8.2,7.7H167.7z M156.9,40.8V29c0-2.3,1-3.1,3.5-3.1h5.6c2.5,0,3.5,0.8,3.5,3.1v11.8c0,2.3-1,3.4-3.5,3.4h-5.6
		C157.9,44.2,156.9,43.1,156.9,40.8z"/>
	<path class="st1" d="M184.3,49.7h9.5c0.4,0,0.9-0.2,1-0.8c0.2-1.2,2.6-18.8,2.6-18.8h0.3c0,0,2.4,17.6,2.6,18.8
		c0.1,0.6,0.6,0.8,1,0.8h9.5c0.5,0,0.9-0.2,1-0.9c0.4-1.9,5.7-28.2,5.7-28.2h-7.2l-3.9,22.8h-0.9L202,20.6h-8.7l-3.7,22.8h-0.9
		l-3.9-22.8h-7.2c0,0,5.3,26.3,5.7,28.2C183.4,49.5,183.8,49.7,184.3,49.7z"/>
	<path class="st1" d="M122.7,32.4v17.2h6.4v-8.9h9.7c5.4,0,8.2-3,8.2-7.4V28c0-4.4-2.9-7.4-8.2-7.4h-16.1l-5.4,5.4l19.8,0
		c2.5,0,3.5,1.2,3.5,3.4v2.5c0,2.3-1,3.4-3.5,3.4h-8.1v-3H122.7z"/>
	<polygon class="st1" points="220.5,49.6 241.7,49.6 241.7,43.9 226.9,43.9 226.9,37.7 239.8,37.7 239.8,32.1 226.9,32.1 226.9,26
		237.7,26 243.1,20.6 220.5,20.6 	"/>
	<path class="st1" d="M270.6,32.2v-3.9c0-4.5-2.9-7.7-8.2-7.7h-16.1l-5.4,5.4h20c2.5,0,3.5,1.2,3.5,3.4V31c0,2.3-1,3.6-3.5,3.6h-8.2
		v-2.2h-6.4v17.2h6.4v-9.7h7.1l4.8,9.7h6.8L266.1,39C269,38,270.6,35.5,270.6,32.2z"/>
	<polygon class="st1" points="110.6,24.9 110.6,49.7 114.8,49.7 114.8,20.8 	"/>
	<polygon class="st1" points="284,61.3 0,61.3 0,69.8 292,69.8 292,20.1 284,20.1 	"/>
	<polygon class="st1" points="0,0 0,49.7 8.5,49.7 8.5,8.5 292,8.5 292,0 	"/>
</g>
</svg>
